<?xml version="1.0" encoding="UTF-8" standalone="no"?>
<!DOCTYPE svg PUBLIC "-//W3C//DTD SVG 1.1//EN" "http://www.w3.org/Graphics/SVG/1.1/DTD/svg11.dtd">
<svg width="100%" height="100%" viewBox="0 0 201 21" version="1.1" xmlns="http://www.w3.org/2000/svg" xmlns:xlink="http://www.w3.org/1999/xlink" xml:space="preserve" xmlns:serif="http://www.serif.com/" style="fill-rule:evenodd;clip-rule:evenodd;stroke-linejoin:round;stroke-miterlimit:2;">
    <path d="M178.636,13C180.326,13 181.166,12.24 181.166,11C181.166,9.99 180.496,9.51 179.736,9.37C180.416,9.14 180.866,8.64 180.866,7.85C180.866,6.72 180.076,6 178.566,6L176.266,6L176.266,13L178.636,13ZM177.136,6.79L178.606,6.79C179.536,6.79 179.996,7.21 179.996,7.91C179.996,8.62 179.526,9.04 178.606,9.04L177.136,9.04L177.136,6.79ZM177.136,9.82L178.636,9.82C179.696,9.82 180.276,10.25 180.276,11.04C180.276,11.76 179.746,12.21 178.636,12.21L177.136,12.21L177.136,9.82ZM186.165,9.36C186.795,9.18 187.255,8.67 187.255,7.81C187.255,6.69 186.385,5.94 184.985,5.94C183.695,5.94 182.735,6.74 182.715,8.02L183.545,8.02C183.555,7.22 184.185,6.69 184.995,6.69C185.795,6.69 186.395,7.13 186.395,7.84C186.395,8.55 185.915,9.06 184.925,9.06L184.405,9.06L184.405,9.81L185.015,9.81C186.055,9.81 186.525,10.27 186.525,11C186.525,11.8 185.915,12.31 185.045,12.31C184.095,12.31 183.455,11.76 183.445,10.84L182.615,10.84C182.615,12.23 183.525,13.06 184.995,13.06C186.475,13.06 187.385,12.25 187.385,11.06C187.385,9.99 186.775,9.48 186.165,9.36ZM191.854,13L191.854,6.8L194.124,6.8L194.124,6L188.714,6L188.714,6.8L190.984,6.8L190.984,13L191.854,13ZM195.032,13L195.712,11.11L198.582,11.11L199.252,13L200.182,13L197.692,6L196.622,6L194.142,13L195.032,13ZM197.132,6.95L198.322,10.32L195.962,10.32L197.132,6.95Z" style="fill:rgb(140,135,125);fill-rule:nonzero;"/>
    <g transform="matrix(0.944408,0,0,0.944408,4.03471,7.96382)">
        <text x="7.087px" y="13.437px" style="font-family:'ArchivoBlack-Regular', 'Archivo Black', sans-serif;font-size:30px;">ORDIN<tspan x="115.119px 138.454px " y="13.437px 13.437px ">AL</tspan>S.</text>
    </g>
</svg>
